<svg xmlns="http://www.w3.org/2000/svg" xmlns:xlink="http://www.w3.org/1999/xlink" viewBox="0 0 48 48"><defs><clipPath><g transform="translate(0,-1004.3622)"><rect fill="#1890d0" width="46" height="46" x="1" y="1005.36" rx="4"/></g></clipPath><clipPath><g transform="translate(0,-1004.3622)"><rect fill="#1890d0" width="46" height="46" x="1" y="1005.36" rx="4"/></g></clipPath><filter id="filter3935"><feGaussianBlur stdDeviation="0.20371"/></filter><path id="SVGCleanerId_0" d="m 21.818 18.213 a 4.648 4.648 0 1 1 -9.296 0 4.648 4.648 0 1 1 9.296 0 z" stroke="none" fill-opacity="1"/></defs><path transform="matrix(0.94807279,0,0,1.1208861,16.220557,-3.1240528)" d="m 30.356 25.09 a 22.15 18.735 0 1 1 -44.3 0 22.15 18.735 0 1 1 44.3 0 z" opacity="0.2" fill="#000" filter="url(#filter3935)" stroke="none" fill-opacity="1"/><path d="m 30.356 25.09 a 22.15 18.735 0 1 1 -44.3 0 22.15 18.735 0 1 1 44.3 0 z" transform="matrix(0.94807278,-1.1135111e-8,1.1260628e-8,1.1208861,16.220557,-4.124051)" fill="#f06760" stroke="none" fill-opacity="1"/><path d="m 24 3 c -11.598 0 -21 9.402 -21 21 c 0 0.166 -0.004 0.335 0 0.5 c 0.263 -11.369 9.568 -20.5 21 -20.5 c 11.432 0 20.737 9.131 21 20.5 c 0.004 -0.165 0 -0.334 0 -0.5 c 0 -11.598 -9.402 -21 -21 -21 z" opacity="0.2" fill="#fff" stroke="none" fill-opacity="1"/><g transform="translate(0,0.99999966)" opacity="0.2" fill="#000" fill-opacity="1"><use height="48" width="48" xlink:href="#SVGCleanerId_0" transform="matrix(-0.43029258,0.74528865,-0.74528865,-0.43029258,34.962066,19.040313)" fill="#000"/><use height="48" width="48" xlink:href="#SVGCleanerId_0" transform="matrix(-0.43029259,0.74528865,-0.74528865,-0.43029259,54.962066,19.040313)" fill="#000"/><use height="48" width="48" xlink:href="#SVGCleanerId_0" transform="matrix(0.8605852,0,0,0.8605852,9.2237521,8.3261616)" fill="#000"/></g><g><use transform="matrix(-0.43029258,0.74528865,-0.74528865,-0.43029258,34.962066,19.040313)" xlink:href="#SVGCleanerId_0" width="48" height="48" fill="#f0d360"/><use transform="matrix(-0.43029259,0.74528865,-0.74528865,-0.43029259,54.962066,19.040313)" xlink:href="#SVGCleanerId_0" width="48" height="48" fill="#c5f060"/><use transform="matrix(0.8605852,0,0,0.8605852,9.2237521,8.3261616)" xlink:href="#SVGCleanerId_0" width="48" height="48" fill="#e9f060"/></g></svg>
