<svg xmlns="http://www.w3.org/2000/svg" width="48" height="48" fill-rule="evenodd" clip-rule="evenodd">
  <path d="M24 1.442c12.702 0 23 10.297 23 23 0 12.702-10.298 23-23 23-12.703 0-23-10.298-23-23 0-12.703 10.297-23 23-23z" opacity=".2" filter="url(#a)" />
  <path d="M24 1c12.702 0 23 10.297 23 23S36.702 47 24 47C11.297 47 1 36.703 1 24 1 11.298 11.297 1 24 1z" fill="#60f0af" />
  <path d="M46.998 23.75l.002.214V24c0 12.604-10.36 22.98-22.964 23C11.42 47.02 1.02 36.654 1 24.036v-.286c.137 12.52 10.49 22.77 23.036 22.75 12.52-.02 22.826-10.26 22.962-22.75z" fill-opacity=".102" />
  <path d="M46.998 24.25C46.864 11.73 36.51 1.48 23.965 1.5 11.445 1.52 1.14 11.76 1.003 24.25L1 24.035V24C1 11.396 11.36 1.02 23.964 1 36.58.98 46.98 11.346 47 23.964v.286z" fill="#fff" fill-opacity=".192" />
  <path fill="url(#b)" d="M34.713 13.5l14.142 14.142-21.213 21.213L13.5 34.713z" />
  <path d="M24 9c8.284 0 15 6.716 15 15 0 8.284-6.716 15-15 15-8.284 0-15-6.716-15-15 0-8.284 6.716-15 15-15z" fill="#fff" />
  <path d="M24 11c7.18 0 13 5.82 13 13s-5.82 13-13 13-13-5.82-13-13 5.82-13 13-13z" fill="#60f0af" />
  <path d="M24 11c7.18 0 13 5.82 13 13s-5.82 13-13 13-13-5.82-13-13 5.82-13 13-13z" fill-opacity=".4" />
  <path d="M24 20c2.21 0 4 1.79 4 4s-1.79 4-4 4-4-1.79-4-4 1.79-4 4-4z" fill-opacity=".2" />
  <path d="M24 16c4.418 0 8 3.582 8 8s-3.582 8-8 8-8-3.582-8-8 3.582-8 8-8z" fill-opacity=".502" />
  <path d="M33.228 14.843l-18.4 18.37C12.465 30.86 11 27.603 11 24c0-7.18 5.82-13 13-13 3.608 0 6.872 1.47 9.228 3.843z" fill-opacity=".102" />
  <path d="M27 19c1.105 0 2 .895 2 2s-.895 2-2 2-2-.895-2-2 .895-2 2-2z" fill="#fff" fill-opacity=".2" />
  <path d="M24 23c.552 0 1 .448 1 1s-.448 1-1 1-1-.448-1-1 .448-1 1-1z" fill-opacity=".2" />
  <defs>
    <radialGradient id="b" cx="-.261" cy=".327" r="1" gradientUnits="userSpaceOnUse" gradientTransform="matrix(19.5 0 0 20.5 29 17.75)" fx="-.261" fy=".327">
      <stop offset="0%" stop-opacity=".4" />
      <stop offset="100%" stop-opacity="0" />
    </radialGradient>
    <filter id="a" x="-.012" width="1.024" y="-.012" height="1.024" color-interpolation-filters="sRGB">
      <feGaussianBlur stdDeviation=".217" />
    </filter>
  </defs>
</svg>
