<svg xmlns="http://www.w3.org/2000/svg" width="48" height="48" fill-rule="evenodd" clip-rule="evenodd">
  <path d="M24 1.442c12.702 0 23 10.297 23 23 0 12.702-10.298 23-23 23-12.703 0-23-10.298-23-23 0-12.703 10.297-23 23-23z" opacity=".2" filter="url(#a)" />
  <path d="M24 1c12.702 0 23 10.297 23 23S36.702 47 24 47C11.297 47 1 36.703 1 24 1 11.298 11.297 1 24 1z" fill="#f06860" />
  <path d="M46.998 23.75l.002.214V24c0 12.604-10.36 22.98-22.964 23C11.42 47.02 1.02 36.654 1 24.036v-.286c.137 12.52 10.49 22.77 23.036 22.75 12.52-.02 22.826-10.26 22.962-22.75z" fill-opacity=".102" />
  <path d="M46.998 24.25C46.864 11.73 36.51 1.48 23.965 1.5c-12.52.02-22.826 10.26-22.962 22.75L1 24.035V24C1 11.396 11.36 1.02 23.964 1 36.58.98 46.98 11.346 47 23.964v.286z" fill="#fff" fill-opacity=".192" />
  <path d="M38.5 21.843l4.243 4.243-5.657 5.657-4.243-4.243z" fill="url(#b)" />
  <path d="M39 24c0 2.194-1.806 4-4 4s-4-1.806-4-4 1.806-4 4-4 4 1.806 4 4z" fill="#f0af60" />
  <path d="M27.5 21.843l4.243 4.243-5.657 5.657-4.243-4.243z" fill="url(#c)" />
  <path d="M28 24c0 2.194-1.806 4-4 4s-4-1.806-4-4 1.806-4 4-4 4 1.806 4 4z" fill="#e9f060" />
  <path d="M16.5 21.843l4.243 4.243-5.657 5.657-4.243-4.243z" fill="url(#d)" />
  <path d="M17 24c0 2.194-1.806 4-4 4s-4-1.806-4-4 1.806-4 4-4 4 1.806 4 4z" fill="#a1f060" />
  <defs>
    <radialGradient id="b" cx="0" cy="0" r="1" gradientUnits="userSpaceOnUse" gradientTransform="matrix(4.243 4.243 -5.657 5.657 35.672 24.672)">
      <stop offset="0%" stop-opacity=".302" />
      <stop offset="100%" stop-color="#0a0b00" stop-opacity="0" />
    </radialGradient>
    <radialGradient id="c" cx="0" cy="0" r="1" gradientUnits="userSpaceOnUse" gradientTransform="matrix(4.243 4.243 -5.657 5.657 24.672 24.672)">
      <stop offset="0%" stop-opacity=".302" />
      <stop offset="100%" stop-color="#0a0b00" stop-opacity="0" />
    </radialGradient>
    <radialGradient id="d" cx="0" cy="0" r="1" gradientUnits="userSpaceOnUse" gradientTransform="matrix(4.243 4.243 -5.657 5.657 13.672 24.672)">
      <stop offset="0%" stop-opacity=".302" />
      <stop offset="100%" stop-color="#0a0b00" stop-opacity="0" />
    </radialGradient>
    <filter id="a" x="-.012" width="1.024" y="-.012" height="1.024" color-interpolation-filters="sRGB">
      <feGaussianBlur stdDeviation=".217" />
    </filter>
  </defs>
</svg>
