<svg xmlns="http://www.w3.org/2000/svg" viewBox="0 0 21 21"><g transform="translate(0,-1031.3622)"><path d="m 9 1034.35 0 6 -6 0 c -2 0 -2 1 -2 2 0 1 0 2 2 2 l 6 0 0 6 c -0.008 2.038 0.964 2.039 2.01 2 0.994 0 1.994 0 1.994 -2 l 0 -6 6 0 c 2 0 2 -1 2 -2.029 0 -0.971 0 -1.971 -2 -1.971 l -6 0 0 -6 c 0 -2 -1 -2 -1.984 -2 -1.016 0 -2.02 0 -2.02 2 z" opacity="0.1" fill="#000" stroke="none" fill-opacity="1"/><path d="M 8,2 8,8 2,8 c -2,0 -2,1 -2,2 0,1 0,2 2,2 l 6,0 0,6 c -0.00755,2.037759 0.9644971,2.03914 2.006158,2 C 11,20 12,20 12,18 l 0,-6 6,0 c 2,0 2,-1 2,-2.0290093 C 20,9 20,8 18,8 L 12,8 12,2 C 12,0 11,0 10.015653,0 9,0 8,0 8,2 z" transform="translate(0,1031.3622)" fill="#fff" stroke="none" fill-opacity="1"/></g></svg>
