<svg xmlns="http://www.w3.org/2000/svg" viewBox="0 0 21 21">
    <g transform="translate(1,1)" opacity="0.1" fill="#000" fill-opacity="1">
        <path d="m 9 1 c -1 0 -2 0 -2 2 l 0 1 -3 0 c -3 0 -4 0.986 -4 3.938 l 0 8.06 c 0 3 1 4 4.063 4 l 11.938 0 c 3 0 4 -1.013 4 -4.03 l 0 -7.969 c 0 -3 -1 -4 -4.03 -4 l -2.969 0 0 -1 c 0 -2 -1 -2 -2 -2 l -2 0 z m 1 5 c 3.314 0 6 2.686 6 6 0 3.314 -2.686 6 -6 6 c -3.314 0 -6 -2.686 -6 -6 0 -3.314 2.686 -6 6 -6 z" fill="#000" stroke="none" />
        <path d="m 16 12 c 0 2.209 -1.791 4 -4 4 -2.209 0 -4 -1.791 -4 -4 0 -2.209 1.791 -4 4 -4 2.209 0 4 1.791 4 4 z" transform="translate(-2,0)" fill="#000" stroke="none" />
        <rect width="3" height="1" x="2" y="2" fill="#000" stroke="none" />
    </g>
    <g>
        <path d="m 9 1 c -1 0 -2 0 -2 2 l 0 1 l -3 0 c -3 0 -4 0.986 -4 3.938 l 0 8.06 c 0 3 1 4 4.063 4 l 11.938 0 c 3 0 4 -1.013 4 -4.03 l 0 -7.969 c 0 -3 -1 -4 -4.03 -4 l -2.969 0 l 0 -1 c 0 -2 -1 -2 -2 -2 l -2 0 z m 1 5 c 3.314 0 6 2.686 6 6 c 0 3.314 -2.686 6 -6 6 c -3.314 0 -6 -2.686 -6 -6 c 0 -3.314 2.686 -6 6 -6 z" fill="#fff" stroke="none" fill-opacity="1" />
        <path transform="translate(-2,0)" d="m 16 12 a 4 4 0 1 1 -8 0 4 4 0 1 1 8 0 z" fill="#fff" stroke="none" fill-opacity="1" />
        <rect y="2" x="2" height="1" width="3" fill="#fff" stroke="none" fill-opacity="1" />
    </g>
</svg>
