<svg xmlns="http://www.w3.org/2000/svg" xmlns:xlink="http://www.w3.org/1999/xlink" height="48" width="48" viewBox="0 0 48 48">
    <defs>
        <clipPath>
            <g transform="translate(0,-1004.3622)">
                <rect fill="#1890d0" width="46" height="46" x="1" y="1005.36" rx="4" />
            </g>
        </clipPath>
        <clipPath>
            <g transform="translate(0,-1004.3622)">
                <rect fill="#1890d0" width="46" height="46" x="1" y="1005.36" rx="4" />
            </g>
        </clipPath>
        <path id="SVGCleanerId_0" d="m 21.818 18.213 a 4.648 4.648 0 1 1 -9.296 0 4.648 4.648 0 1 1 9.296 0 z" stroke="none" fill-opacity="1" />
        <filter id="filter3999">
            <feGaussianBlur stdDeviation="0.23" />
        </filter>
    </defs>
    <path d="m 47 24.502 a 23 23 89.91 0 1 -46 0 A 23 23 89.91 1 1 47 24.502 z" opacity="0.2" fill="#000" filter="url(#filter3999)" stroke="none" fill-opacity="1" />
    <path d="m 47 24 a 23 23 89.91 0 1 -46 0 A 23 23 89.91 1 1 47 24 z" fill="#f06760" stroke="none" fill-opacity="1" />
    <g>
        <g transform="translate(-1.0000002,0)">
            <use transform="matrix(-0.43029258,0.74528865,-0.74528865,-0.43029258,34.962066,20.040313)" xlink:href="#SVGCleanerId_0" width="48" height="48" opacity="0.2" fill="#000" />
            <use height="48" width="48" xlink:href="#SVGCleanerId_0" transform="matrix(-0.43029258,0.74528865,-0.74528865,-0.43029258,34.962066,19.040313)" fill="#f0d360" />
        </g>
        <g transform="translate(1,0)">
            <use transform="matrix(-0.43029259,0.74528865,-0.74528865,-0.43029259,54.962066,20.040313)" xlink:href="#SVGCleanerId_0" width="48" height="48" opacity="0.2" fill="#000" />
            <use height="48" width="48" xlink:href="#SVGCleanerId_0" transform="matrix(-0.43029259,0.74528865,-0.74528865,-0.43029259,54.962066,19.040313)" fill="#c5f060" />
        </g>
        <g>
            <use transform="matrix(0.8605852,0,0,0.8605852,9.2237521,9.3261613)" xlink:href="#SVGCleanerId_0" width="48" height="48" opacity="0.2" fill="#000" />
            <use height="48" width="48" xlink:href="#SVGCleanerId_0" transform="matrix(0.8605852,0,0,0.8605852,9.2237521,8.3261616)" fill="#e9f060" />
        </g>
    </g>
    <path d="M 24.656 1 A 23 23 1.569 0 0 1 24 A 23 23 1.569 0 0 1 24.313 A 23 23 1.569 0 1 46.969 23.531 A 23 23 1.569 0 0 24.656 1 z" opacity="0.2" fill="#fff" stroke="none" fill-opacity="1" />
</svg>
