<svg width="48px" height="48px" version="1.1" xmlns="http://www.w3.org/2000/svg" xmlns:xlink="http://www.w3.org/1999/xlink" xml:space="preserve" style="fill-rule:evenodd;clip-rule:evenodd;stroke-miterlimit:1;">
	<g>
		<path d="M47,24c-6.2356e-08,12.6038 -10.3601,22.9802 -22.9639,23c-12.6174,0.0198194 -23.0163,-10.3464 -23.0361,-22.9638c-1.89167e-05,-0.0120427 -2.8375e-05,-0.0240855 -2.83751e-05,-0.0361282c-6.2356e-08,-12.6038 10.3601,-22.9802 22.9639,-23c12.6174,-0.0198194 23.0163,10.3464 23.0361,22.9638c1.89168e-05,0.0120428 2.83752e-05,0.0240856 2.83751e-05,0.0361284Z" style="fill:#f06760;fill-rule:nonzero;" />
		<g transform="matrix(5.46924e-17,-0.978261,0.978261,6.52258e-17,0.521739,47.4783)">
			<path d="M47,24c-6.2356e-08,12.6038 -10.3601,22.9802 -22.9639,23c-12.6174,0.0198194 -23.0163,-10.3464 -23.0361,-22.9638c-1.89167e-05,-0.0120427 -2.8375e-05,-0.0240855 -2.83751e-05,-0.0361282c-6.2356e-08,-12.6038 10.3601,-22.9802 22.9639,-23c12.6174,-0.0198194 23.0163,10.3464 23.0361,22.9638c1.89168e-05,0.0120428 2.83752e-05,0.0240856 2.83751e-05,0.0361284Z" style="fill:none;stroke-width:1.36px;stroke:url(#tag1);" />
		</g>
		<g transform="matrix(-0.430293,0.745289,-0.745289,-0.430293,33.9621,20.0403)">
			<path d="M21.818,18.213c0,2.54982 -2.09818,4.648 -4.648,4.648c-2.54982,0 -4.648,-2.09818 -4.648,-4.648c0,-2.54982 2.09818,-4.648 4.648,-4.648c2.54982,0 4.648,2.09818 4.648,4.648Z" style="fill:#000;fill-opacity:0.160784;fill-rule:nonzero;" />
		</g>
		<g transform="matrix(-0.430293,0.745289,-0.745289,-0.430293,33.9621,19.0403)">
			<path d="M21.818,18.213c0,2.54982 -2.09818,4.648 -4.648,4.648c-2.54982,0 -4.648,-2.09818 -4.648,-4.648c0,-2.54982 2.09818,-4.648 4.648,-4.648c2.54982,0 4.648,2.09818 4.648,4.648Z" style="fill:#f0d360;fill-rule:nonzero;" />
		</g>
		<g transform="matrix(-0.430293,0.745289,-0.745289,-0.430293,55.9621,20.0403)">
			<path d="M21.818,18.213c0,2.54982 -2.09818,4.648 -4.648,4.648c-2.54982,0 -4.648,-2.09818 -4.648,-4.648c0,-2.54982 2.09818,-4.648 4.648,-4.648c2.54982,0 4.648,2.09818 4.648,4.648Z" style="fill:#000;fill-opacity:0.160784;fill-rule:nonzero;" />
		</g>
		<g transform="matrix(-0.430293,0.745289,-0.745289,-0.430293,55.9621,19.0403)">
			<path d="M21.818,18.213c0,2.54982 -2.09818,4.648 -4.648,4.648c-2.54982,0 -4.648,-2.09818 -4.648,-4.648c0,-2.54982 2.09818,-4.648 4.648,-4.648c2.54982,0 4.648,2.09818 4.648,4.648Z" style="fill:#c5f060;fill-rule:nonzero;" />
		</g>
		<g transform="matrix(0.860585,0,0,0.860585,9.22375,9.32616)">
			<path d="M21.818,18.213c0,2.54982 -2.09818,4.648 -4.648,4.648c-2.54982,0 -4.648,-2.09818 -4.648,-4.648c0,-2.54982 2.09818,-4.648 4.648,-4.648c2.54982,0 4.648,2.09818 4.648,4.648Z" style="fill:#000;fill-opacity:0.160784;fill-rule:nonzero;" />
		</g>
		<g transform="matrix(0.860585,0,0,0.860585,9.22375,8.32616)">
			<path d="M21.818,18.213c0,2.54982 -2.09818,4.648 -4.648,4.648c-2.54982,0 -4.648,-2.09818 -4.648,-4.648c0,-2.54982 2.09818,-4.648 4.648,-4.648c2.54982,0 4.648,2.09818 4.648,4.648Z" style="fill:#e9f060;fill-rule:nonzero;" />
		</g>
	</g>
	<defs>
		<linearGradient id="tag1" x1="0" y1="0" x2="1" y2="0" gradientUnits="userSpaceOnUse" gradientTransform="matrix(46,0,0,46,1,24)">
			<stop offset="0%" style="stop-color:#fff;stop-opacity:0.2" />
			<stop offset="100%" style="stop-color:#fff;stop-opacity:0" />
		</linearGradient>
	</defs>
</svg>
